<svg xmlns="http://www.w3.org/2000/svg" width="184.429" height="69.975" viewBox="0 0 184.429 69.975">
  <g id="Group_9154" data-name="Group 9154" transform="translate(0 60.086)">
    <path id="Path_6810" data-name="Path 6810" d="M0,0V0M1.8-29.785V5.681A9.852,9.852,0,0,1,0,.007V-29.785c0-16.142,14.375-30.3,30.763-30.3s30.763,14.159,30.763,30.3l.008,14.81a5.067,5.067,0,0,0,5.059,5.064,5.065,5.065,0,0,0,5.059-5.059l0-14.817c0-16.141,14.375-30.3,30.762-30.3s30.763,14.159,30.763,30.3v7.068c.229,7.027,7.277,12.769,15.712,12.769,8.677,0,15.736-5.9,15.736-13.156V-56.358h1.8V-23.1c0,8.247-7.867,14.956-17.536,14.956-9.555,0-17.247-6.386-17.511-14.54v-7.1c0-15.183-13.534-28.5-28.963-28.5s-28.963,13.316-28.963,28.5l0,14.817a6.867,6.867,0,0,1-6.859,6.859,6.869,6.869,0,0,1-6.859-6.864l-.008-14.81c0-15.183-13.534-28.5-28.963-28.5S1.8-44.968,1.8-29.785m28.963-24.9c13.511,0,25.363,11.636,25.363,24.9l.008,14.81A10.473,10.473,0,0,0,66.593-4.511,10.471,10.471,0,0,0,77.052-14.97l0-14.817c0-13.264,11.852-24.9,25.362-24.9,13.461,0,25.311,11.6,25.359,24.826v7.084c.205,10.051,9.678,18.228,21.116,18.228,11.654,0,21.136-8.324,21.136-18.556V-56.358h-1.8V-23.1c0,9.239-8.674,16.755-19.336,16.755-10.465,0-19.131-7.386-19.316-16.445v-7.069c-.051-14.182-12.742-26.624-27.159-26.624-14.469,0-27.162,12.477-27.162,26.7l0,14.817a8.669,8.669,0,0,1-8.659,8.658,8.67,8.67,0,0,1-8.659-8.662l-.008-14.81c0-14.225-12.693-26.7-27.163-26.7S3.6-44.009,3.6-29.785V7.637A9.926,9.926,0,0,0,5.4,8.811v-38.6c0-13.265,11.852-24.9,25.363-24.9M9-29.785V9.854a9.788,9.788,0,0,1-1.8-.336v-39.3c0-12.09,11.23-23.1,23.562-23.1s23.563,11.012,23.563,23.1l.008,14.81A12.274,12.274,0,0,0,66.593-2.711,12.273,12.273,0,0,0,78.852-14.969l0-14.817c0-12.089,11.23-23.1,23.562-23.1,12.444,0,23.45,10.722,23.554,22.944v7.071c.141,11.09,10.423,20.123,22.921,20.123,12.646,0,22.936-9.131,22.936-20.356V-56.358h1.8V-23.1c0,12.217-11.1,22.156-24.735,22.156-13.478,0-24.568-9.83-24.721-21.912v-7.074C124.078-41,113.709-51.085,102.418-51.085c-11.389,0-21.762,10.151-21.762,21.3l0,14.817A14.075,14.075,0,0,1,66.593-.91,14.077,14.077,0,0,1,52.534-14.973l-.008-14.81c0-11.149-10.373-21.3-21.763-21.3S9-40.933,9-29.785m21.763-17.7c9.506,0,18.163,8.438,18.163,17.7l.008,14.81A17.68,17.68,0,0,0,66.593,2.689,17.679,17.679,0,0,0,84.252-14.969l0-14.817c0-9.264,8.657-17.7,18.162-17.7,9.356,0,18.006,8.337,18.149,17.478v7.065c.1,14.113,12.809,25.6,28.326,25.6,15.624,0,28.335-11.555,28.335-25.756V-56.358h-1.8V-23.1c0,13.209-11.9,23.955-26.536,23.955-14.531,0-26.431-10.679-26.526-23.8v-7.073c-.158-10.082-9.665-19.264-19.949-19.264-10.447,0-19.962,9.295-19.962,19.5l0,14.817A15.876,15.876,0,0,1,66.593.888a15.877,15.877,0,0,1-15.859-15.86l-.008-14.81c0-10.208-9.515-19.5-19.963-19.5S10.8-39.991,10.8-29.785V9.854a9.721,9.721,0,0,0,1.8-.337v-39.3c0-9.264,8.658-17.7,18.163-17.7M16.2-29.785V7.636A9.926,9.926,0,0,1,14.4,8.81v-38.6c0-8.955,8.795-15.9,16.362-15.9s16.363,6.948,16.363,15.906l.008,14.81A19.481,19.481,0,0,0,66.593,4.488,19.479,19.479,0,0,0,86.052-14.968l0-14.817c0-8.955,8.795-15.9,16.362-15.9,9.114,0,16.146,8.226,16.345,15.58v7.08c.047,15.151,13.564,27.479,30.13,27.479,16.617,0,30.136-12.361,30.136-27.556V-56.358h1.8V-23.1c0,16.187-14.327,29.357-31.936,29.357-17.556,0-31.879-13.134-31.93-29.277v-7.058c-.176-6.5-6.434-13.8-14.545-13.8-8.2,0-14.562,7.58-14.562,14.1l0,14.817A21.282,21.282,0,0,1,66.593,6.289a21.283,21.283,0,0,1-21.259-21.26l-.008-14.81c0-6.523-6.361-14.105-14.563-14.105S16.2-36.306,16.2-29.785M182.629-56.358V-23.1c0,17.18-15.134,31.155-33.736,31.155S115.158-5.924,115.158-23.1v-7.1c-.32-6.694-7.11-11.886-12.739-11.886-7.069,0-12.762,6.729-12.762,12.3l0,14.817A23.084,23.084,0,0,1,66.593,8.089,23.085,23.085,0,0,1,43.534-14.97l-.008-14.811c0-5.573-5.693-12.3-12.763-12.3S18-35.357,18-29.785V5.68A9.839,9.839,0,0,0,19.8,0V-29.785c0-4.756,4.89-10.5,10.963-10.5s10.963,5.747,10.963,10.5l.008,14.811A24.887,24.887,0,0,0,66.593,9.889,24.886,24.886,0,0,0,91.452-14.968l0-14.817c0-4.756,4.891-10.5,10.963-10.5,5.888,0,10.716,5.466,10.94,10.128V-23.1c0,18.172,15.941,32.956,35.535,32.956S184.429-4.932,184.429-23.1V-56.358Z" fill="#414b46"/>
  </g>
</svg>
